<?xml version="1.0" encoding="utf-8"?>
<!-- Generator: Adobe Illustrator 22.1.0, SVG Export Plug-In . SVG Version: 6.00 Build 0)  -->
<svg version="1.1" id="Layer_1" xmlns="http://www.w3.org/2000/svg" xmlns:xlink="http://www.w3.org/1999/xlink" x="0px" y="0px"
	 viewBox="0 0 500 500" style="enable-background:new 0 0 500 500;" xml:space="preserve">
<style type="text/css">
	.st0{fill:#06C179;}
	.st1{fill:#E3E3E3;}
	.st2{fill:#FF8C00;}
	.st3{fill:#004E7A;}
	.st4{fill:#FFDC12;}
	.st5{fill:#FFFFFF;}
	.st6{fill:#FF453B;}
	.st7{fill:#002B45;}
	.st8{fill:#FFBB00;}
</style>
<rect class="st0" width="500" height="500"/>
<g>
	<g>
		<path class="st1" d="M448,344.6h-62.4c-2.1,0-3.8-1.7-3.8-3.8V214.7c0-2.1,1.7-3.8,3.8-3.8H448c2.1,0,3.8,1.7,3.8,3.8v126.1
			C451.8,342.9,450.1,344.6,448,344.6z"/>
		<rect x="385.6" y="229.9" class="st2" width="62.4" height="89.8"/>
		<rect x="412.4" y="329.3" class="st3" width="8.9" height="8.9"/>
		<path class="st3" d="M423.6,218.5H410c-1,0-1.9,0.8-1.9,1.9c0,1,0.8,1.9,1.9,1.9h13.7c1,0,1.9-0.8,1.9-1.9
			C425.5,219.4,424.7,218.5,423.6,218.5z"/>
	</g>
	<g>
		<rect x="399.6" y="273" class="st4" width="34.4" height="32"/>
		<g>
			<path class="st5" d="M405.3,273c0-0.1,0-7.6,0-10.4c0-0.5,0-0.9,0-1.4c0-4.2,0-9,3.1-12.1c1.9-1.9,4.7-2.9,8.4-2.9
				c3.8,0,6.6,0.9,8.5,2.9c3.1,3.1,3,7.7,3,12.2c0,0.5,0,0.9,0,1.4V273H424v-10.4c0-0.5,0-0.9,0-1.4c0-3.8,0.1-7.3-1.7-9.2
				c-1.1-1.1-2.9-1.6-5.4-1.6c-2.5,0-4.3,0.5-5.3,1.6c-1.9,1.9-1.9,5.6-1.8,9.1c0,0.5,0,1,0,1.5c0,2.8,0,10.3,0,10.4L405.3,273z"/>
		</g>
		<g>
			<rect x="405.4" y="277.5" class="st5" width="7.6" height="8.9"/>
			<rect x="413" y="277.5" class="st6" width="7.6" height="8.9"/>
			<rect x="420.6" y="277.5" class="st7" width="7.6" height="8.9"/>
		</g>
	</g>
</g>
<g>
	<g>
		<polygon class="st1" points="265.7,340.1 214.8,340.1 220,316.7 260.5,316.7 		"/>
		<rect x="197.3" y="340.1" class="st5" width="85.9" height="9.4"/>
		<rect x="124.7" y="143.9" class="st7" width="231.1" height="173.5"/>
		<rect x="228.7" y="301.4" class="st3" width="23.1" height="7.7"/>
		
			<rect x="171.5" y="120.3" transform="matrix(6.123234e-17 -1 1 6.123234e-17 15.9809 464.5162)" class="st4" width="137.6" height="208"/>
	</g>
	<g>
		<g>
			<g>
				<path class="st8" d="M192.1,266.4c-4.5,0-8.2-3.7-8.2-8.2v-5.5c0-4.5,3.7-8.2,8.2-8.2c4.5,0,8.2,3.7,8.2,8.2v5.5
					C200.3,262.8,196.6,266.4,192.1,266.4z M192.1,250.8c-1.1,0-2,0.9-2,2v5.5c0,1.1,0.9,2,2,2c1.1,0,2-0.9,2-2v-5.5
					C194.2,251.7,193.2,250.8,192.1,250.8z"/>
			</g>
			<g>
				<path class="st8" d="M279.7,201.3c-1.7,0-3.1-1.4-3.1-3.1v-15.7c0-1.7,1.4-3.1,3.1-3.1c1.7,0,3.1,1.4,3.1,3.1v15.7
					C282.8,200,281.4,201.3,279.7,201.3z"/>
			</g>
			<g>
				<path class="st8" d="M311.2,210.8c-4.5,0-8.2-3.7-8.2-8.2v-5.5c0-4.5,3.7-8.2,8.2-8.2c4.5,0,8.2,3.7,8.2,8.2v5.5
					C319.4,207.2,315.7,210.8,311.2,210.8z M311.2,195.2c-1.1,0-2,0.9-2,2v5.5c0,1.1,0.9,2,2,2c1.1,0,2-0.9,2-2v-5.5
					C313.2,196.1,312.3,195.2,311.2,195.2z"/>
			</g>
			<g>
				<path class="st8" d="M314.2,263.5c-1.7,0-3.1-1.4-3.1-3.1v-15.7c0-1.7,1.4-3.1,3.1-3.1c1.7,0,3.1,1.4,3.1,3.1v15.7
					C317.3,262.2,315.9,263.5,314.2,263.5z"/>
			</g>
			<g>
				<path class="st8" d="M169.3,240.6c-4.5,0-8.2-3.7-8.2-8.2V227c0-4.5,3.7-8.2,8.2-8.2c4.5,0,8.2,3.7,8.2,8.2v5.5
					C177.5,237,173.8,240.6,169.3,240.6z M169.3,225c-1.1,0-2,0.9-2,2v5.5c0,1.1,0.9,2,2,2c1.1,0,2-0.9,2-2V227
					C171.3,225.9,170.4,225,169.3,225z"/>
			</g>
			<g>
				<path class="st8" d="M286.7,273.4c-1.7,0-3.1-1.4-3.1-3.1v-15.7c0-1.7,1.4-3.1,3.1-3.1s3.1,1.4,3.1,3.1v15.7
					C289.8,272,288.4,273.4,286.7,273.4z"/>
			</g>
			<g>
				<path class="st8" d="M207.4,236.8c-1.7,0-3.1-1.4-3.1-3.1V218c0-1.7,1.4-3.1,3.1-3.1c1.7,0,3.1,1.4,3.1,3.1v15.7
					C210.4,235.4,209.1,236.8,207.4,236.8z"/>
			</g>
			<g>
				<path class="st8" d="M195.2,196.9c-4.5,0-8.2-3.7-8.2-8.2v-5.5c0-4.5,3.7-8.2,8.2-8.2c4.5,0,8.2,3.7,8.2,8.2v5.5
					C203.3,193.3,199.7,196.9,195.2,196.9z M195.2,181.3c-1.1,0-2,0.9-2,2v5.5c0,1.1,0.9,2,2,2c1.1,0,2-0.9,2-2v-5.5
					C197.2,182.2,196.3,181.3,195.2,181.3z"/>
			</g>
			<g>
				<path class="st8" d="M292.6,236.8c-4.5,0-8.2-3.7-8.2-8.2v-5.5c0-4.5,3.7-8.2,8.2-8.2c4.5,0,8.2,3.7,8.2,8.2v5.5
					C300.8,233.1,297.2,236.8,292.6,236.8z M292.6,221.1c-1.1,0-2,0.9-2,2v5.5c0,1.1,0.9,2,2,2c1.1,0,2-0.9,2-2v-5.5
					C294.7,222,293.8,221.1,292.6,221.1z"/>
			</g>
			<g>
				<path class="st8" d="M175.1,210.8c-1.7,0-3.1-1.4-3.1-3.1v-15.7c0-1.7,1.4-3.1,3.1-3.1c1.7,0,3.1,1.4,3.1,3.1v15.7
					C178.2,209.5,176.8,210.8,175.1,210.8z"/>
			</g>
		</g>
		<path class="st2" d="M269.3,226.1c-1.3-1.7-3-3.1-5.1-4.2c0.8-0.8,1.5-1.6,2.1-2.6c1.4-2.4,2.1-5.1,2.1-8.1c0-3.1-0.8-6-2.4-8.5
			c-1.7-2.6-4.5-4.6-8.3-5.7c-0.1,0-0.3-0.1-0.4-0.1v-13.7c0-2.1-1.7-3.9-3.9-3.9c-2.1,0-3.9,1.7-3.9,3.9V196c-1,0-2-0.1-3.2-0.1
			h-4.9v-12.6c0-2.1-1.7-3.9-3.9-3.9c-2.1,0-3.9,1.7-3.9,3.9v12.6h-0.9h-12.9c-2.1,0-3.9,1.7-3.9,3.9c0,2.1,1.7,3.9,3.9,3.9h9V223
			v21.5h-9c-2.1,0-3.9,1.7-3.9,3.9s1.7,3.9,3.9,3.9h12.9h0.9V266c0,2.1,1.7,3.9,3.9,3.9c2.1,0,3.9-1.7,3.9-3.9v-13.8h2.1
			c2.2,0,4.2-0.1,5.9-0.2V266c0,2.1,1.7,3.9,3.9,3.9c2.1,0,3.9-1.7,3.9-3.9v-14.9c2.6-0.6,4.8-1.3,6.6-2.3c1.9-1,3.5-2.3,4.7-3.6
			c1.3-1.5,2.3-3.1,2.8-4.9c0.5-1.6,0.8-3.4,0.8-5.2C272.1,231.7,271.2,228.7,269.3,226.1z M251.9,203.8c1.3,0.1,2.5,0.3,3.5,0.6
			c2,0.6,3.4,1.5,4.1,2.6c0.8,1.2,1.2,2.6,1.2,4.2c0,1.6-0.3,3-1.1,4.2c-0.6,1.1-1.8,2-3.4,2.6c-1.2,0.5-3.6,1.1-8.6,1.1h-11v-15.5
			h9.7C248.5,203.6,250.4,203.7,251.9,203.8z M264,237.9c-0.2,0.8-0.6,1.4-1.2,2.1c-0.6,0.7-1.5,1.4-2.7,2c-1.2,0.7-2.8,1.2-4.8,1.6
			c-1.3,0.3-2.9,0.5-4.7,0.7c-2,0.2-4.3,0.2-7.1,0.2h-6.9v-17.6h11h0.7c2.6,0,4.7,0.1,6.3,0.3c1.5,0.1,2.8,0.4,3.8,0.7
			c2.2,0.7,3.7,1.6,4.6,2.8c0.9,1.2,1.3,2.6,1.3,4.3C264.4,236,264.3,237,264,237.9z"/>
	</g>
</g>
<g>
	<g>
		<path class="st4" d="M102.5,274.8c0,4.3-0.9,8.4-2.4,12.1c-0.1,0.2-0.1,0.5-0.3,0.7c0,0.1-0.1,0.1-0.1,0.2
			c-1.1,2.4-2.5,4.7-4.1,6.7c-13.3,22.5-11.7,31.3-11.7,31.3v2.6c-0.6-0.2-1.2-0.3-1.9-0.3H65.2c-0.7,0-1.3,0.1-1.9,0.3v-2.6
			c0,0,1.6-8.8-11.7-31.3c-1.6-2-3-4.3-4.1-6.7c0-0.1-0.1-0.1-0.1-0.2c-0.2-0.3-0.2-0.5-0.3-0.7c-1.5-3.7-2.4-7.8-2.4-12.1
			c0-16.7,12.9-30.3,28.9-30.3C89.5,244.6,102.5,258.1,102.5,274.8z"/>
		<g>
			<polygon class="st8" points="69.3,329.2 63.7,266.1 69.3,272.6 73.6,267.6 77.9,272.6 83.5,266.1 77.9,329.2 75.8,329 
				80.9,272.3 77.9,275.8 73.6,270.8 69.3,275.8 66.3,272.3 71.3,329 			"/>
		</g>
	</g>
	<g>
		<path class="st7" d="M79.1,339.7v0.8c0,1.3-1.6,3.7-3.7,3.7h-3.7c-2,0-3.7-2.5-3.7-3.7v-0.8H79.1z"/>
		<path class="st7" d="M86.4,331.2c0,1.8-2,3.2-4.4,3.2H65.2c-2.4,0-4.4-1.4-4.4-3.2c0-1.3,1-2.4,2.5-2.9c0.6-0.2,1.2-0.3,1.9-0.3
			H82c0.7,0,1.3,0.1,1.9,0.3C85.4,328.9,86.4,330,86.4,331.2z"/>
		<path class="st7" d="M83.9,336.5c0,1.8-2,3.2-4.4,3.2H67.7c-2.5,0-4.4-1.4-4.4-3.2c0-1.7,2-3.2,4.4-3.2h11.8
			C81.9,333.4,83.9,334.8,83.9,336.5z"/>
	</g>
</g>
</svg>
